                    <svg width="64" height="64" viewBox="0 0 64 64" fill="none" xmlns="http://www.w3.org/2000/svg">
                      <g filter="url(#filter0_d)">
                        <path
                          d="M32 59C47.464 59 60 46.464 60 31C60 15.536 47.464 3 32 3C16.536 3 4 15.536 4 31C4 46.464 16.536 59 32 59Z"
                          fill="white" />
                        <path d="M31.9968 9.37878L53.4431 30.825L31.9968 52.2713L10.5506 30.825L31.9968 9.37878Z"
                          fill="#FFCE45" />
                        <path d="M31.9965 37.8232L10.5327 30.8232L31.9965 9.37699L53.4602 30.825L31.9965 37.8232Z"
                          fill="#FEBE44" />
                        <path
                          d="M17.9982 29.425H27.7982L31.9965 24.7577L36.662 29.4232H46.462L31.9965 13.7922L17.9982 29.425Z"
                          fill="white" />
                        <path opacity="0.42" d="M31.9965 52.2695V9.37699L53.4427 30.825L31.9965 52.2695Z"
                          fill="#D9A547" />
                      </g>
                      <defs>
                        <filter id="filter0_d" x="0" y="0" width="64" height="64" filterUnits="userSpaceOnUse"
                          color-interpolation-filters="sRGB">
                          <feFlood flood-opacity="0" result="BackgroundImageFix" />
                          <feColorMatrix in="SourceAlpha" type="matrix"
                            values="0 0 0 0 0 0 0 0 0 0 0 0 0 0 0 0 0 0 127 0" />
                          <feOffset dy="1" />
                          <feGaussianBlur stdDeviation="2" />
                          <feColorMatrix type="matrix" values="0 0 0 0 0 0 0 0 0 0 0 0 0 0 0 0 0 0 0.2 0" />
                          <feBlend mode="normal" in2="BackgroundImageFix" result="effect1_dropShadow" />
                          <feBlend mode="normal" in="SourceGraphic" in2="effect1_dropShadow" result="shape" />
                        </filter>
                      </defs>
                    </svg>