                    <svg width="64" height="64" viewBox="0 0 64 64" fill="none" xmlns="http://www.w3.org/2000/svg">
                      <g filter="url(#filter0_d)">
                      <rect x="4" y="3" width="56" height="56" rx="28" fill="white"/>
                      <path d="M32 59C47.464 59 60 46.464 60 31C60 15.536 47.464 3 32 3C16.536 3 4 15.536 4 31C4 46.464 16.536 59 32 59Z" fill="white"/>
                      <path d="M32.25 57.5C46.7475 57.5 58.5 45.7475 58.5 31.25C58.5 16.7525 46.7475 5 32.25 5C17.7525 5 6 16.7525 6 31.25C6 45.7475 17.7525 57.5 32.25 57.5Z" fill="#2775C9"/>
                      <path style="mix-blend-mode:soft-light" d="M32.25 57.5C46.7475 57.5 58.5 45.7475 58.5 31.25C58.5 16.7525 46.7475 5 32.25 5C17.7525 5 6 16.7525 6 31.25C6 45.7475 17.7525 57.5 32.25 57.5Z" fill="url(#paint0_linear)"/>
                      <path d="M32.25 56.625C46.2642 56.625 57.625 45.2642 57.625 31.25C57.625 17.2358 46.2642 5.875 32.25 5.875C18.2358 5.875 6.875 17.2358 6.875 31.25C6.875 45.2642 18.2358 56.625 32.25 56.625Z" stroke="black" stroke-opacity="0.097"/>
                      <path d="M31.8125 51.375C20.455 51.375 11.25 42.17 11.25 30.8125C11.25 19.455 20.455 10.25 31.8125 10.25C43.17 10.25 52.375 19.455 52.375 30.8125C52.375 36.266 50.2086 41.4962 46.3524 45.3524C42.4962 49.2086 37.266 51.375 31.8125 51.375ZM30.5875 23.1825C29.4624 23.2383 28.3989 23.7126 27.6056 24.5124C26.8123 25.3121 26.3466 26.3795 26.3 27.505C26.3 29.6225 27.595 31.005 30.3425 31.5825L32.2675 32.0375C34.14 32.475 34.91 33.105 34.91 34.1725C34.91 35.24 33.5625 36.29 31.8125 36.29C31.1909 36.347 30.5658 36.2279 30.0087 35.9462C29.4517 35.6646 28.9851 35.2319 28.6625 34.6975C28.5669 34.4947 28.416 34.3231 28.2271 34.2024C28.0383 34.0816 27.8192 34.0167 27.595 34.015H26.5625C26.4831 34.0297 26.4074 34.06 26.3397 34.104C26.2721 34.1481 26.2138 34.2051 26.1683 34.2718C26.1227 34.3385 26.0908 34.4135 26.0744 34.4926C26.0579 34.5717 26.0573 34.6532 26.0725 34.7325C26.324 35.759 26.9088 36.6731 27.7353 37.3317C28.5617 37.9904 29.5833 38.3564 30.64 38.3725V39.8425C30.64 40.1697 30.77 40.4835 31.0014 40.7149C31.2327 40.9463 31.5465 41.0763 31.8737 41.0763C32.201 41.0763 32.5148 40.9463 32.7461 40.7149C32.9775 40.4835 33.1075 40.1697 33.1075 39.8425V38.355C34.3024 38.3415 35.4447 37.862 36.2913 37.0186C37.1379 36.1753 37.6218 35.0348 37.64 33.84C37.64 31.6175 36.3625 30.34 33.335 29.6925L31.585 29.3075C29.835 28.87 29.0125 28.2925 29.0125 27.3125C29.0125 26.3325 30.0625 25.2475 31.8125 25.2475C32.3636 25.1899 32.9197 25.2932 33.4134 25.5447C33.9072 25.7962 34.3176 26.1853 34.595 26.665C34.7075 26.9046 34.8855 27.1073 35.1085 27.2498C35.3315 27.3923 35.5904 27.4686 35.855 27.47H36.6775C36.8645 27.4243 37.0261 27.307 37.1275 27.1433C37.229 26.9797 37.2622 26.7828 37.22 26.595C36.9829 25.6473 36.4526 24.7986 35.7046 24.1701C34.9567 23.5416 34.0294 23.1653 33.055 23.095V21.8875C33.055 21.5603 32.925 21.2465 32.6936 21.0151C32.4623 20.7837 32.1485 20.6537 31.8213 20.6537C31.494 20.6537 31.1802 20.7837 30.9489 21.0151C30.7175 21.2465 30.5875 21.5603 30.5875 21.8875V23.1825ZM16.395 30.8125C16.397 34.0361 17.4117 37.1776 19.2958 39.7934C21.1798 42.4091 23.8381 44.3668 26.895 45.39H27.14C27.3489 45.39 27.5492 45.307 27.6968 45.1593C27.8445 45.0117 27.9275 44.8114 27.9275 44.6025V44.235C27.9281 43.9092 27.8319 43.5906 27.6512 43.3196C27.4705 43.0486 27.2134 42.8373 26.9125 42.7125C24.5318 41.7516 22.4926 40.1011 21.0566 37.9729C19.6206 35.8448 18.8534 33.3361 18.8534 30.7688C18.8534 28.2014 19.6206 25.6927 21.0566 23.5646C22.4926 21.4364 24.5318 19.7859 26.9125 18.825C27.212 18.7033 27.4685 18.4952 27.6493 18.2272C27.8301 17.9591 27.9269 17.6433 27.9275 17.32V16.9175C27.9286 16.7993 27.9012 16.6826 27.8477 16.5773C27.7941 16.4719 27.7159 16.3811 27.6197 16.3124C27.5236 16.2437 27.4123 16.1992 27.2952 16.1827C27.1782 16.1661 27.0589 16.1781 26.9475 16.2175C23.8779 17.2327 21.2063 19.1892 19.312 21.8092C17.4176 24.4292 16.397 27.5794 16.395 30.8125ZM47.23 30.8125C47.2243 27.5919 46.2079 24.4543 44.3241 21.842C42.4403 19.2298 39.7841 17.2747 36.73 16.2525H36.4675C36.2494 16.2525 36.0402 16.3392 35.8859 16.4934C35.7317 16.6477 35.645 16.8569 35.645 17.075V17.3375C35.6521 17.675 35.7566 18.0033 35.946 18.2828C36.1354 18.5622 36.4016 18.7809 36.7125 18.9125C39.0878 19.8762 41.1214 21.5268 42.5533 23.653C43.9851 25.7791 44.75 28.2842 44.75 30.8475C44.75 33.4108 43.9851 35.9159 42.5533 38.042C41.1214 40.1682 39.0878 41.8188 36.7125 42.7825C36.4075 42.9155 36.1468 43.1326 35.9608 43.4084C35.7749 43.6843 35.6714 44.0074 35.6625 44.34V44.6375C35.664 44.7672 35.6962 44.8948 35.7564 45.0097C35.8166 45.1246 35.9031 45.2237 36.0089 45.2988C36.1147 45.3739 36.2368 45.4229 36.3652 45.4418C36.4935 45.4607 36.6245 45.4489 36.7475 45.4075C39.804 44.3804 42.4604 42.4187 44.3414 39.7998C46.2224 37.1808 47.2329 34.037 47.23 30.8125Z" fill="white"/>
                      </g>
                      <defs>
                      <filter id="filter0_d" x="0" y="0" width="64" height="64" filterUnits="userSpaceOnUse" color-interpolation-filters="sRGB">
                      <feFlood flood-opacity="0" result="BackgroundImageFix"/>
                      <feColorMatrix in="SourceAlpha" type="matrix" values="0 0 0 0 0 0 0 0 0 0 0 0 0 0 0 0 0 0 127 0"/>
                      <feOffset dy="1"/>
                      <feGaussianBlur stdDeviation="2"/>
                      <feColorMatrix type="matrix" values="0 0 0 0 0 0 0 0 0 0 0 0 0 0 0 0 0 0 0.2 0"/>
                      <feBlend mode="normal" in2="BackgroundImageFix" result="effect1_dropShadow"/>
                      <feBlend mode="normal" in="SourceGraphic" in2="effect1_dropShadow" result="shape"/>
                      </filter>
                      <linearGradient id="paint0_linear" x1="32.25" y1="5" x2="32.25" y2="57.5" gradientUnits="userSpaceOnUse">
                      <stop stop-color="white" stop-opacity="0.5"/>
                      <stop offset="1" stop-opacity="0.5"/>
                      </linearGradient>
                      </defs>
                      </svg>